<svg width="38" height="38" viewBox="0 0 38 38" fill="none" xmlns="http://www.w3.org/2000/svg">
<path d="M33.482 29.6917C32.8031 28.7834 31.7988 28.0849 30.3414 28.3127C26.9725 28.839 28.7622 26.2071 26.3409 27.2599C24.4037 28.1022 23.0071 30.4884 22.5509 31.5763C22.4105 30.9095 21.8771 29.4497 20.8664 28.9443C19.6031 28.3127 19.1819 29.3655 18.445 28.3127C17.7081 27.2599 17.7081 25.786 17.0764 24.3121C16.4448 22.8382 19.1819 20.6274 20.8664 21.4696C22.5509 22.3119 23.6036 21.7854 24.4459 23.0487C25.288 24.3121 26.3409 25.8912 26.3409 21.4696C26.3409 17.0479 28.4464 15.0476 29.3939 15.153C30.3414 15.2583 33.2892 14.2053 32.7628 13.1527C32.2363 12.1002 29.3939 11.5735 29.3939 10.626C29.3939 9.67852 30.6572 7.6785 29.3939 6.731C28.1305 5.78351 24.9722 3.88851 22.5509 4.09906C20.1294 4.30962 19.3834 5.25774 19.3834 6.09996C19.3834 6.94218 22.5509 8.52158 20.8664 9.5738C19.1819 10.626 13.7075 12.31 13.7075 10.626C13.7075 8.94213 13.3916 5.36269 14.4445 5.36269C15.4973 5.36269 15.8131 2.73076 16.4448 2.83604C17.0764 2.94131 19.7084 1.78393 20.8664 2.30998C21.2214 2.47126 22.3879 2.16751 23.7014 1.62017M33.482 29.6917C35.6929 26.7021 37 23.0037 37 19.0001C37 10.6854 31.3626 3.68752 23.7014 1.62017M33.482 29.6917C30.2034 34.1252 24.9375 37 19 37C17.9429 37 16.9072 36.9089 15.9002 36.7341M23.7014 1.62017C22.2027 1.21574 20.6266 1 19 1C11.4535 1 4.99172 5.64399 2.31652 12.2301M15.9002 36.7341C16.0361 35.951 16.2141 35.3038 16.4448 34.9451C17.3923 33.4713 20.5506 34.524 20.8664 33.7871C21.1822 33.0502 19.8136 32.208 18.445 31.5763C17.0764 30.9446 14.7603 30.313 14.4445 27.2599C14.1286 24.2069 12.6548 24.7332 12.3389 24.3121C12.0231 23.891 8.33835 22.7329 7.17998 20.6274C6.0216 18.5219 7.18029 14.9424 7.17998 13.9949C7.17975 13.3251 4.27558 12.6062 2.31652 12.2301M15.9002 36.7341C7.43617 35.2649 1 27.8841 1 19.0001C1 16.6054 1.46762 14.3199 2.31652 12.2301" stroke="#FF70D9" stroke-width="1.5" stroke-linecap="square" stroke-linejoin="round"/>
</svg>
